<svg width="25" height="24" viewBox="0 0 25 24" fill="none" xmlns="http://www.w3.org/2000/svg">
<path d="M2.37433 13.9023C1.02668 13.9023 0.352848 14.5762 0.352848 15.9238V21.4043C0.352848 22.752 1.02668 23.4258 2.37433 23.4258H7.58527C8.93293 23.4258 9.60675 22.752 9.60675 21.4043V15.9238C9.60675 12.7793 9.27733 10.0391 8.61847 7.70312C7.92967 5.33724 6.59699 3.27083 4.62043 1.50391C3.96157 0.934896 3.40754 0.860026 2.95832 1.2793L0.936832 3.16602C0.487614 3.58529 0.592431 4.0944 1.25129 4.69336C2.26951 5.5918 3.10806 6.89453 3.76691 8.60156C4.39582 10.2786 4.71027 12.0456 4.71027 13.9023H2.37433ZM17.1986 13.9023C15.8509 13.9023 15.1771 14.5762 15.1771 15.9238V21.4043C15.1771 22.752 15.8509 23.4258 17.1986 23.4258H22.4095C23.7571 23.4258 24.431 22.752 24.431 21.4043V15.9238C24.431 12.7793 24.1015 10.0391 23.4427 7.70312C22.7539 5.33724 21.4212 3.27083 19.4446 1.50391C18.7858 0.934896 18.2318 0.860026 17.7825 1.2793L15.7611 3.16602C15.3118 3.58529 15.4167 4.0944 16.0755 4.69336C17.0937 5.5918 17.9323 6.89453 18.5911 8.60156C19.22 10.2786 19.5345 12.0456 19.5345 13.9023H17.1986Z" fill="#D41D55"/>
</svg>
