<?xml version="1.0" standalone="no"?>
<!DOCTYPE svg PUBLIC "-//W3C//DTD SVG 20010904//EN"
 "http://www.w3.org/TR/2001/REC-SVG-20010904/DTD/svg10.dtd">
<svg version="1.0" xmlns="http://www.w3.org/2000/svg"
 width="188.000000pt" height="80.000000pt" viewBox="0 0 188.000000 80.000000"
 preserveAspectRatio="xMidYMid meet">

<g transform="translate(0.000000,80.000000) scale(0.100000,-0.100000)"
fill="#000000" stroke="none">
<path d="M132 648 c3 -131 6 -158 23 -186 55 -92 202 -108 290 -31 19 17 35
36 35 41 0 6 -9 -1 -21 -16 -25 -32 -68 -35 -94 -6 -12 13 -25 17 -45 14 -21
-5 -32 0 -48 21 -11 14 -18 33 -15 41 3 8 -1 14 -11 14 -22 0 -56 36 -56 59 0
10 16 39 35 64 28 37 35 55 35 91 l0 46 -66 0 -66 0 4 -152z"/>
<path d="M370 730 c0 -61 2 -70 18 -70 23 0 42 -19 42 -43 0 -13 5 -17 16 -13
8 3 24 1 35 -4 18 -10 19 -6 19 95 l0 105 -65 0 -65 0 0 -70z"/>
<path d="M17 743 c-12 -11 -7 -137 7 -188 7 -28 65 -164 128 -302 l115 -252
232 313 c127 173 231 323 231 334 0 11 -7 25 -14 32 -34 27 -59 7 -159 -130
-118 -163 -148 -185 -247 -184 -118 1 -175 54 -191 176 -16 122 -28 180 -40
194 -12 15 -51 19 -62 7z"/>
<path d="M254 674 c-54 -57 -59 -114 -10 -114 18 0 35 13 61 46 40 53 42 64
17 87 -25 23 -30 22 -68 -19z"/>
<path d="M315 593 c-47 -60 -53 -81 -33 -101 26 -26 54 -13 96 45 46 63 49 74
26 97 -26 26 -42 19 -89 -41z"/>
<path d="M435 582 c-22 -16 -65 -82 -65 -100 0 -24 23 -45 46 -40 10 2 33 25
52 51 30 42 33 51 24 73 -11 23 -37 31 -57 16z"/>
<path d="M1233 484 c-8 -21 13 -42 28 -27 13 13 5 43 -11 43 -6 0 -13 -7 -17
-16z"/>
<path d="M1504 485 c-7 -18 3 -35 22 -35 20 0 30 30 13 41 -20 12 -29 11 -35
-6z"/>
<path d="M1580 391 l0 -89 55 -1 c64 0 85 15 85 65 0 55 -55 95 -88 62 -9 -9
-12 -5 -12 20 0 25 -4 32 -20 32 -19 0 -20 -7 -20 -89z m98 -17 c4 -25 -20
-47 -42 -38 -16 6 -22 45 -9 58 14 14 48 1 51 -20z"/>
<path d="M890 401 c0 -82 13 -101 70 -101 53 0 70 26 70 107 0 56 -2 63 -20
63 -18 0 -20 -7 -20 -59 0 -62 -14 -86 -44 -75 -12 5 -16 20 -16 70 0 57 -2
64 -20 64 -18 0 -20 -7 -20 -69z"/>
<path d="M1310 468 c0 -2 13 -40 29 -84 26 -72 31 -79 58 -82 28 -3 30 0 52
70 13 40 26 79 29 86 3 10 -2 13 -18 10 -18 -2 -27 -15 -42 -57 -10 -30 -20
-56 -22 -58 -2 -2 -13 22 -23 54 -15 44 -25 59 -41 61 -12 2 -22 2 -22 0z"/>
<path d="M1060 368 c0 -61 2 -68 19 -68 17 0 20 8 23 48 3 43 5 47 28 47 23 0
25 -4 28 -47 3 -40 6 -48 23 -48 16 0 19 7 19 50 0 37 -5 55 -20 70 -23 23
-33 24 -61 10 -10 -6 -19 -7 -19 -2 0 4 -9 8 -20 8 -18 0 -20 -7 -20 -68z"/>
<path d="M1230 368 c0 -61 2 -68 20 -68 18 0 20 7 20 68 0 61 -2 68 -20 68
-18 0 -20 -7 -20 -68z"/>
<path d="M1505 432 c-3 -3 -5 -34 -5 -69 0 -56 2 -63 20 -63 18 0 20 7 20 68
0 54 -3 69 -15 69 -8 0 -17 -3 -20 -5z"/>
<path d="M1780 433 c-41 -15 -55 -87 -22 -116 23 -21 76 -22 96 -1 23 23 20
26 -25 22 -27 -2 -44 1 -46 10 -3 8 10 12 45 12 47 0 49 1 44 25 -7 41 -50 63
-92 48z m50 -44 c0 -5 -12 -9 -26 -9 -22 0 -24 2 -14 14 12 15 40 11 40 -5z"/>
</g>
</svg>
