<svg width="25" height="24" viewBox="0 0 25 24" fill="none" xmlns="http://www.w3.org/2000/svg">
<path d="M22.5554 13.9023C23.9031 13.9023 24.5769 14.5762 24.5769 15.9238V21.4043C24.5769 22.752 23.9031 23.4258 22.5554 23.4258H17.3445C15.9968 23.4258 15.323 22.752 15.323 21.4043V15.9238C15.323 12.7793 15.6524 10.0391 16.3113 7.70312C17.0001 5.33724 18.3328 3.27083 20.3093 1.50391C20.9682 0.934896 21.5222 0.860026 21.9714 1.2793L23.9929 3.16602C24.4421 3.58529 24.3373 4.0944 23.6785 4.69336C22.6602 5.5918 21.8217 6.89453 21.1628 8.60156C20.5339 10.2786 20.2195 12.0456 20.2195 13.9023H22.5554ZM7.7312 13.9023C9.07885 13.9023 9.75268 14.5762 9.75268 15.9238V21.4043C9.75268 22.752 9.07885 23.4258 7.7312 23.4258H2.52026C1.1726 23.4258 0.498775 22.752 0.498775 21.4043V15.9238C0.498775 12.7793 0.828203 10.0391 1.48706 7.70312C2.17586 5.33724 3.50854 3.27083 5.4851 1.50391C6.14396 0.934896 6.69799 0.860026 7.14721 1.2793L9.1687 3.16602C9.61792 3.58529 9.5131 4.0944 8.85424 4.69336C7.83602 5.5918 6.99747 6.89453 6.33862 8.60156C5.70971 10.2786 5.39526 12.0456 5.39526 13.9023H7.7312Z" fill="#D41D55"/>
</svg>
