<svg width="46" height="73" viewBox="0 0 46 73" fill="none" xmlns="http://www.w3.org/2000/svg">
<path d="M22.24 24.1962C22.24 25.3002 22.072 26.2362 21.736 27.0042C21.384 27.7562 20.904 28.3722 20.296 28.8522C19.688 29.3322 18.992 29.6842 18.208 29.9082C17.424 30.1162 16.592 30.2362 15.712 30.2682C15.28 30.2842 14.824 30.3002 14.344 30.3162C13.864 30.3162 13.384 30.3162 12.904 30.3162C12.408 30.3002 11.936 30.2842 11.488 30.2682C10.608 30.2522 9.776 30.1322 8.992 29.9082C8.192 29.6682 7.496 29.3162 6.904 28.8522C6.296 28.3722 5.824 27.7482 5.488 26.9802C5.136 26.2122 4.96 25.2842 4.96 24.1962C4.96 23.0922 5.136 22.1642 5.488 21.4122C5.824 20.6442 6.296 20.0202 6.904 19.5402C7.496 19.0602 8.192 18.7082 8.992 18.4842C9.776 18.2442 10.608 18.1162 11.488 18.1002C11.936 18.0842 12.408 18.0762 12.904 18.0762C13.384 18.0602 13.864 18.0602 14.344 18.0762C14.824 18.0762 15.28 18.0842 15.712 18.1002C16.592 18.1162 17.424 18.2442 18.208 18.4842C18.992 18.7082 19.688 19.0602 20.296 19.5402C20.904 20.0042 21.384 20.6202 21.736 21.3882C22.072 22.1402 22.24 23.0762 22.24 24.1962ZM20.2 24.1962C20.2 22.9482 19.792 22.0282 18.976 21.4362C18.144 20.8282 17.016 20.5162 15.592 20.5002C15.128 20.4682 14.68 20.4522 14.248 20.4522C13.8 20.4522 13.36 20.4522 12.928 20.4522C12.48 20.4522 12.04 20.4682 11.608 20.5002C10.216 20.5162 9.104 20.8282 8.272 21.4362C7.424 22.0282 7 22.9482 7 24.1962C7 25.4282 7.424 26.3482 8.272 26.9562C9.104 27.5482 10.216 27.8602 11.608 27.8922C12.04 27.8922 12.48 27.9002 12.928 27.9162C13.36 27.9162 13.8 27.9162 14.248 27.9162C14.68 27.9002 15.128 27.8922 15.592 27.8922C17.016 27.8602 18.144 27.5402 18.976 26.9322C19.792 26.3242 20.2 25.4122 20.2 24.1962ZM22.24 8.45784C22.24 9.46584 22.12 10.3458 21.88 11.0978C21.624 11.8498 21.288 12.4818 20.872 12.9938C20.456 13.5058 20 13.8978 19.504 14.1698C19.008 14.4258 18.496 14.5618 17.968 14.5778C17.824 14.5778 17.712 14.5298 17.632 14.4338C17.552 14.3378 17.512 14.2178 17.512 14.0738V12.8978C17.512 12.7538 17.544 12.6258 17.608 12.5138C17.672 12.4018 17.808 12.3058 18.016 12.2258C18.592 12.0658 19.04 11.7938 19.36 11.4098C19.68 11.0098 19.904 10.5538 20.032 10.0418C20.144 9.51384 20.2 8.98584 20.2 8.45784C20.2 7.35384 19.936 6.45784 19.408 5.76984C18.88 5.08184 18.104 4.73784 17.08 4.73784C16.04 4.73784 15.296 5.04984 14.848 5.67384C14.4 6.29784 14.176 7.16184 14.176 8.26584V10.5458C14.176 10.7058 14.128 10.8418 14.032 10.9538C13.936 11.0498 13.8 11.0978 13.624 11.0978H12.976C12.832 11.0978 12.712 11.0738 12.616 11.0258C12.504 10.9618 12.408 10.8978 12.328 10.8338L7.24 6.17784L7.24 13.2578C7.24 13.4178 7.192 13.5538 7.096 13.6658C7 13.7618 6.864 13.8098 6.688 13.8098H5.776C5.6 13.8098 5.464 13.7618 5.368 13.6658C5.256 13.5538 5.2 13.4178 5.2 13.2578L5.2 3.68184C5.2 3.50584 5.256 3.36984 5.368 3.27384C5.464 3.16184 5.6 3.10584 5.776 3.10584H6.64C6.752 3.10584 6.856 3.13784 6.952 3.20184C7.032 3.24984 7.112 3.30584 7.192 3.36984L12.352 8.00184L12.376 7.61784C12.408 6.56184 12.6 5.64184 12.952 4.85784C13.304 4.05784 13.832 3.44184 14.536 3.00984C15.224 2.56184 16.096 2.33784 17.152 2.33784C18.224 2.33784 19.144 2.60184 19.912 3.12984C20.664 3.65784 21.24 4.38584 21.64 5.31384C22.04 6.24184 22.24 7.28984 22.24 8.45784Z" fill="#D41D55"/>
<line x1="12.283" y1="38.5" x2="12.283" y2="72.5" stroke="#D41D55" stroke-width="2"/>
</svg>
