<svg width="46" height="73" viewBox="0 0 46 73" fill="none" xmlns="http://www.w3.org/2000/svg">
<path d="M22.24 22.122C22.24 23.226 22.072 24.162 21.736 24.93C21.384 25.682 20.904 26.298 20.296 26.778C19.688 27.258 18.992 27.61 18.208 27.834C17.424 28.042 16.592 28.162 15.712 28.194C15.28 28.21 14.824 28.226 14.344 28.242C13.864 28.242 13.384 28.242 12.904 28.242C12.408 28.226 11.936 28.21 11.488 28.194C10.608 28.178 9.776 28.058 8.992 27.834C8.192 27.594 7.496 27.242 6.904 26.778C6.296 26.298 5.824 25.674 5.488 24.906C5.136 24.138 4.96 23.21 4.96 22.122C4.96 21.018 5.136 20.09 5.488 19.338C5.824 18.57 6.296 17.946 6.904 17.466C7.496 16.986 8.192 16.634 8.992 16.41C9.776 16.17 10.608 16.042 11.488 16.026C11.936 16.01 12.408 16.002 12.904 16.002C13.384 15.986 13.864 15.986 14.344 16.002C14.824 16.002 15.28 16.01 15.712 16.026C16.592 16.042 17.424 16.17 18.208 16.41C18.992 16.634 19.688 16.986 20.296 17.466C20.904 17.93 21.384 18.546 21.736 19.314C22.072 20.066 22.24 21.002 22.24 22.122ZM20.2 22.122C20.2 20.874 19.792 19.954 18.976 19.362C18.144 18.754 17.016 18.442 15.592 18.426C15.128 18.394 14.68 18.378 14.248 18.378C13.8 18.378 13.36 18.378 12.928 18.378C12.48 18.378 12.04 18.394 11.608 18.426C10.216 18.442 9.104 18.754 8.272 19.362C7.424 19.954 7 20.874 7 22.122C7 23.354 7.424 24.274 8.272 24.882C9.104 25.474 10.216 25.786 11.608 25.818C12.04 25.818 12.48 25.826 12.928 25.842C13.36 25.842 13.8 25.842 14.248 25.842C14.68 25.826 15.128 25.818 15.592 25.818C17.016 25.786 18.144 25.466 18.976 24.858C19.792 24.25 20.2 23.338 20.2 22.122ZM22 6.91162C22 7.07163 21.952 7.20763 21.856 7.31963C21.744 7.41563 21.608 7.46362 21.448 7.46362H8.008L11.08 11.4476C11.176 11.5756 11.216 11.7116 11.2 11.8556C11.184 11.9996 11.112 12.1196 10.984 12.2156L10.192 12.8396C10.048 12.9356 9.904 12.9756 9.76 12.9596C9.616 12.9276 9.496 12.8476 9.4 12.7196L5.368 7.48763C5.288 7.37563 5.24 7.27163 5.224 7.17563C5.208 7.07962 5.2 6.97562 5.2 6.86362V5.63962C5.2 5.47962 5.256 5.35162 5.368 5.25562C5.464 5.15963 5.592 5.11163 5.752 5.11163H21.448C21.608 5.11163 21.744 5.15963 21.856 5.25562C21.952 5.35162 22 5.47962 22 5.63962V6.91162Z" fill="#D41D55"/>
<line x1="12.283" y1="38.5" x2="12.283" y2="72.5" stroke="#D41D55" stroke-width="2"/>
</svg>
