<svg width="46" height="73" viewBox="0 0 46 73" fill="none" xmlns="http://www.w3.org/2000/svg">
<path d="M22.24 24.0322C22.24 25.1362 22.072 26.0722 21.736 26.8402C21.384 27.5922 20.904 28.2082 20.296 28.6882C19.688 29.1682 18.992 29.5202 18.208 29.7442C17.424 29.9522 16.592 30.0722 15.712 30.1042C15.28 30.1202 14.824 30.1362 14.344 30.1522C13.864 30.1522 13.384 30.1522 12.904 30.1522C12.408 30.1362 11.936 30.1202 11.488 30.1042C10.608 30.0882 9.776 29.9682 8.992 29.7442C8.192 29.5042 7.496 29.1522 6.904 28.6882C6.296 28.2082 5.824 27.5842 5.488 26.8162C5.136 26.0482 4.96 25.1202 4.96 24.0322C4.96 22.9282 5.136 22.0002 5.488 21.2482C5.824 20.4802 6.296 19.8562 6.904 19.3762C7.496 18.8962 8.192 18.5442 8.992 18.3202C9.776 18.0802 10.608 17.9522 11.488 17.9362C11.936 17.9202 12.408 17.9122 12.904 17.9122C13.384 17.8962 13.864 17.8962 14.344 17.9122C14.824 17.9122 15.28 17.9202 15.712 17.9362C16.592 17.9522 17.424 18.0802 18.208 18.3202C18.992 18.5442 19.688 18.8962 20.296 19.3762C20.904 19.8402 21.384 20.4562 21.736 21.2242C22.072 21.9762 22.24 22.9122 22.24 24.0322ZM20.2 24.0322C20.2 22.7842 19.792 21.8642 18.976 21.2722C18.144 20.6642 17.016 20.3522 15.592 20.3362C15.128 20.3042 14.68 20.2882 14.248 20.2882C13.8 20.2882 13.36 20.2882 12.928 20.2882C12.48 20.2882 12.04 20.3042 11.608 20.3362C10.216 20.3522 9.104 20.6642 8.272 21.2722C7.424 21.8642 7 22.7842 7 24.0322C7 25.2642 7.424 26.1842 8.272 26.7922C9.104 27.3842 10.216 27.6962 11.608 27.7282C12.04 27.7282 12.48 27.7362 12.928 27.7522C13.36 27.7522 13.8 27.7522 14.248 27.7522C14.68 27.7362 15.128 27.7282 15.592 27.7282C17.016 27.6962 18.144 27.3762 18.976 26.7682C19.792 26.1602 20.2 25.2482 20.2 24.0322ZM22 13.7178C22 13.8778 21.952 14.0138 21.856 14.1258C21.744 14.2218 21.608 14.2698 21.448 14.2698H20.68C20.536 14.2698 20.376 14.2298 20.2 14.1498C20.024 14.0698 19.832 13.9098 19.624 13.6698L14.536 8.58178C13.848 7.76578 13.264 7.12578 12.784 6.66178C12.288 6.18178 11.816 5.84578 11.368 5.65378C10.92 5.44578 10.456 5.34178 9.976 5.34178C9.064 5.34178 8.344 5.59778 7.816 6.10978C7.272 6.62178 7 7.38178 7 8.38978C7 9.02978 7.136 9.58178 7.408 10.0458C7.664 10.5098 8.024 10.8778 8.488 11.1498C8.936 11.4058 9.448 11.5738 10.024 11.6538C10.232 11.6858 10.376 11.7738 10.456 11.9178C10.536 12.0458 10.576 12.1658 10.576 12.2778V13.5258C10.576 13.6698 10.536 13.7898 10.456 13.8858C10.36 13.9818 10.248 14.0298 10.12 14.0298C9.512 14.0138 8.904 13.8858 8.296 13.6458C7.672 13.4058 7.112 13.0538 6.616 12.5898C6.12 12.1098 5.72 11.5258 5.416 10.8378C5.096 10.1338 4.936 9.31778 4.936 8.38978C4.936 7.12578 5.168 6.09378 5.632 5.29378C6.08 4.47778 6.68 3.87778 7.432 3.49378C8.184 3.10978 9.008 2.91778 9.904 2.91778C10.608 2.91778 11.256 3.03778 11.848 3.27778C12.424 3.51778 12.992 3.86978 13.552 4.33378C14.096 4.78178 14.656 5.34178 15.232 6.01378L19.912 10.6218L19.912 3.13378C19.912 2.95778 19.96 2.82178 20.056 2.72578C20.152 2.61378 20.288 2.55778 20.464 2.55778H21.448C21.608 2.55778 21.744 2.61378 21.856 2.72578C21.952 2.82178 22 2.95778 22 3.13378L22 13.7178Z" fill="#D41D55"/>
<line x1="12.283" y1="38.5" x2="12.283" y2="72.5" stroke="#D41D55" stroke-width="2"/>
</svg>
