<svg width="46" height="73" viewBox="0 0 46 73" fill="none" xmlns="http://www.w3.org/2000/svg">
<path d="M22.24 24.4423C22.24 25.5463 22.072 26.4823 21.736 27.2503C21.384 28.0023 20.904 28.6183 20.296 29.0983C19.688 29.5783 18.992 29.9303 18.208 30.1543C17.424 30.3623 16.592 30.4823 15.712 30.5143C15.28 30.5303 14.824 30.5463 14.344 30.5623C13.864 30.5623 13.384 30.5623 12.904 30.5623C12.408 30.5463 11.936 30.5303 11.488 30.5143C10.608 30.4983 9.776 30.3783 8.992 30.1543C8.192 29.9143 7.496 29.5623 6.904 29.0983C6.296 28.6183 5.824 27.9943 5.488 27.2263C5.136 26.4583 4.96 25.5303 4.96 24.4423C4.96 23.3383 5.136 22.4103 5.488 21.6583C5.824 20.8903 6.296 20.2663 6.904 19.7863C7.496 19.3063 8.192 18.9543 8.992 18.7303C9.776 18.4903 10.608 18.3623 11.488 18.3463C11.936 18.3303 12.408 18.3223 12.904 18.3223C13.384 18.3063 13.864 18.3063 14.344 18.3223C14.824 18.3223 15.28 18.3303 15.712 18.3463C16.592 18.3623 17.424 18.4903 18.208 18.7303C18.992 18.9543 19.688 19.3063 20.296 19.7863C20.904 20.2503 21.384 20.8663 21.736 21.6343C22.072 22.3863 22.24 23.3223 22.24 24.4423ZM20.2 24.4423C20.2 23.1943 19.792 22.2743 18.976 21.6823C18.144 21.0743 17.016 20.7623 15.592 20.7463C15.128 20.7143 14.68 20.6983 14.248 20.6983C13.8 20.6983 13.36 20.6983 12.928 20.6983C12.48 20.6983 12.04 20.7143 11.608 20.7463C10.216 20.7623 9.104 21.0743 8.272 21.6823C7.424 22.2743 7 23.1943 7 24.4423C7 25.6743 7.424 26.5943 8.272 27.2023C9.104 27.7943 10.216 28.1063 11.608 28.1383C12.04 28.1383 12.48 28.1463 12.928 28.1623C13.36 28.1623 13.8 28.1623 14.248 28.1623C14.68 28.1463 15.128 28.1383 15.592 28.1383C17.016 28.1063 18.144 27.7863 18.976 27.1783C19.792 26.5703 20.2 25.6583 20.2 24.4423ZM22 6.23194C22 6.39194 21.952 6.52794 21.856 6.63994C21.744 6.73594 21.608 6.78394 21.448 6.78394H17.992V14.5599C17.992 14.7199 17.944 14.8559 17.848 14.9679C17.736 15.0639 17.6 15.1119 17.44 15.1119H16.48C16.416 15.1119 16.32 15.0959 16.192 15.0639C16.048 15.0159 15.904 14.9439 15.76 14.8479L5.608 7.64794C5.336 7.45594 5.2 7.15994 5.2 6.75994V5.03194C5.2 4.87194 5.256 4.74394 5.368 4.64794C5.464 4.53594 5.592 4.47994 5.752 4.47994H15.904V2.31994C15.904 2.14394 15.96 2.00794 16.072 1.91194C16.168 1.79994 16.296 1.74394 16.456 1.74394H17.44C17.6 1.74394 17.736 1.79994 17.848 1.91194C17.944 2.00794 17.992 2.13594 17.992 2.29594L17.992 4.47994H21.448C21.608 4.47994 21.744 4.53594 21.856 4.64794C21.952 4.74394 22 4.87194 22 5.03194V6.23194ZM15.952 12.5439V6.75994H7.72L15.952 12.5439Z" fill="#D41D55"/>
<line x1="12.283" y1="38.5" x2="12.283" y2="72.5" stroke="#D41D55" stroke-width="2"/>
</svg>
