<svg width="26" height="26" viewBox="0 0 26 26" fill="none" xmlns="http://www.w3.org/2000/svg">
<g clip-path="url(#clip0_174_943)">
<path d="M2.84375 3.0625H9.09375C9.83541 3.0625 10.4375 3.66459 10.4375 4.40625V16.125C10.4375 19.8891 7.38912 22.9375 3.625 22.9375H3.23438C3.13725 22.9375 3.0625 22.8628 3.0625 22.7656V20.4219C3.0625 20.3247 3.13725 20.25 3.23438 20.25H3.625C5.90092 20.25 7.75 18.4009 7.75 16.125V12H2.84375C2.10209 12 1.5 11.3979 1.5 10.6562V4.40625C1.5 3.66459 2.10209 3.0625 2.84375 3.0625ZM16.9062 3.0625H23.1562C23.8979 3.0625 24.5 3.66459 24.5 4.40625V16.125C24.5 19.8891 21.4516 22.9375 17.6875 22.9375H17.2969C17.1997 22.9375 17.125 22.8628 17.125 22.7656V20.4219C17.125 20.3247 17.1997 20.25 17.2969 20.25H17.6875C19.9634 20.25 21.8125 18.4009 21.8125 16.125V12H16.9062C16.1646 12 15.5625 11.3979 15.5625 10.6562V4.40625C15.5625 3.66459 16.1646 3.0625 16.9062 3.0625Z" stroke="#D41D55" stroke-width="2"/>
</g>
<defs>
<clipPath id="clip0_174_943">
<rect width="25" height="25" fill="white" transform="translate(0.5 0.5)"/>
</clipPath>
</defs>
</svg>
